<svg xmlns="http://www.w3.org/2000/svg" width="1000" height="1000" viewBox="0 0 1000 1000">
  <metadata><?xpacket begin="﻿" id="W5M0MpCehiHzreSzNTczkc9d"?>
<x:xmpmeta xmlns:x="adobe:ns:meta/" x:xmptk="Adobe XMP Core 5.6-c142 79.160924, 2017/07/13-01:06:39        ">
   <rdf:RDF xmlns:rdf="http://www.w3.org/1999/02/22-rdf-syntax-ns#">
      <rdf:Description rdf:about=""/>
   </rdf:RDF>
</x:xmpmeta>
                                                                                                    
                                                                                                    
                                                                                                    
                                                                                                    
                                                                                                    
                                                                                                    
                                                                                                    
                                                                                                    
                                                                                                    
                                                                                                    
                                                                                                    
                                                                                                    
                                                                                                    
                                                                                                    
                                                                                                    
                                                                                                    
                                                                                                    
                                                                                                    
                                                                                                    
                                                                                                    
                           
<?xpacket end="w"?></metadata>
<defs>
    <style>
      .cls-1, .cls-2 {
        fill: #2f2f2f;
      }

      .cls-1 {
        stroke: #000;
        stroke-width: 1px;
        fill-rule: evenodd;
      }

      .cls-2 {
        font-size: 208.333px;
        text-anchor: middle;
        font-family: "Lucida Handwriting";
        font-style: italic;
        font-variant: small-caps;
      }
    </style>
  </defs>
  <path class="cls-1" d="M888.835,150.8c-5.633-30.889-29.269-55.652-59.754-71.375-29.8-15.832-66.327-21.942-96.474-16.444-19.2,3.5-35.894,12.926-46.34,25.477-11.147,12.668-15.936,29.138-12.682,46.983,5.132,28.138,29.453,52.792,59.252,68.624,29.928,16.533,65.322,24.259,92.736,19.26,24-4.376,43.924-11.559,54.137-25.469l96.506,529.183,17.137-3.125Z"/>
  <path class="cls-1" d="M263.948,946.679c12.928,22.148,37.969,34.582,65.753,38.164,27.288,3.858,57.032-1.621,78.645-14.237,13.764-8.034,23.955-19.918,28.48-32.465,5.028-12.829,4.119-26.809-3.35-39.605-11.776-20.176-37.315-32.333-64.6-36.192-27.581-4.361-56.907-.436-76.559,11.034-17.2,10.042-30.5,21.106-34.468,34.63L36.365,528.567,24.08,535.738c9.359,18.285,20.776,44.617,10.848,76.146C23.2,647.091,13.449,681.166,9.418,709.252c-5.491,36.859-1.355,76.664,17.318,108.654a210.718,210.718,0,0,0,35.316,44.708A138.1,138.1,0,0,0,81.165,924.7c20.11,34.452,47.089,56.977,75.131,72.277l7.858-4.586c-19.51-9.729-53.624-39.955-66.439-64.157-14.233-26.66-21.175-43.054-16.541-73.48,5.376-34.8,40.642-88.386,56.948-123.64ZM42.387,815.377c-14.244-26.656-13.246-54.289-8.612-84.715C39.15,695.856,58.62,658.1,76.937,626.292c19.7,36.007,17.582,85.412,7.654,116.94-11.722,35.209-16.908,53.418-20.814,79.446A199.633,199.633,0,0,0,61.754,846.3C54.736,836.533,46.778,824.023,42.387,815.377Z"/>
  <text id="Basis" class="cls-2" x="312.417" y="231.412"><tspan x="312.417">Basis</tspan></text>
  <text id="Leer" class="cls-2" x="736.699" y="916.606"><tspan x="736.699">Leer</tspan></text>
  <text id="Noten" class="cls-2" x="498.292" y="567.259"><tspan x="498.292">Noten</tspan></text>
</svg>
